<svg width="100" height="125.00000000000001" xmlns="http://www.w3.org/2000/svg">

 <g>
  <title>background</title>
  <rect fill="none" id="canvas_background" height="602" width="802" y="-1" x="-1"/>
 </g>
 <g>
  <title>Layer 1</title>
  <path id="svg_1" d="m64.672,62.507c0,0.966 -0.783,1.75 -1.75,1.75l-11.172,0l0,11.173c0,0.967 -0.784,1.75 -1.75,1.75s-1.75,-0.783 -1.75,-1.75l0,-11.173l-11.174,0c-0.966,0 -1.75,-0.784 -1.75,-1.75s0.784,-1.75 1.75,-1.75l11.174,0l0,-11.173c0,-0.966 0.784,-1.75 1.75,-1.75s1.75,0.784 1.75,1.75l0,11.173l11.172,0c0.967,0 1.75,0.784 1.75,1.75zm15.078,0c0,7.946 -3.095,15.417 -8.714,21.036c-5.8,5.8 -13.418,8.7 -21.036,8.7s-15.236,-2.9 -21.036,-8.7c-5.619,-5.619 -8.714,-13.09 -8.714,-21.036c0,-7.947 3.095,-15.417 8.714,-21.036c5.619,-5.619 13.09,-8.714 21.036,-8.714s15.417,3.095 21.036,8.714c5.619,5.618 8.714,13.089 8.714,21.036zm-3.5,0c0,-7.012 -2.73,-13.604 -7.688,-18.562s-11.55,-7.688 -18.562,-7.688s-13.604,2.73 -18.562,7.688s-7.688,11.55 -7.688,18.562s2.73,13.604 7.688,18.562c10.236,10.234 26.889,10.235 37.123,0c4.959,-4.959 7.689,-11.55 7.689,-18.562z" fill="#ffffff"/>
 </g>
</svg>